<svg aria-hidden="true" style="position: absolute; width: 0; height: 0; overflow: hidden;" version="1.1" xmlns="http://www.w3.org/2000/svg" xmlns:xlink="http://www.w3.org/1999/xlink">
<defs>
<symbol id="icon-arrow-down" viewBox="0 0 38 32">
<path fill="#d1d1d7" style="fill: var(--color1, #d1d1d7)" d="M19.2 32l16.628-28.8h-33.255l16.628 28.8z"></path>
</symbol>
<symbol id="icon-globe" viewBox="0 0 32 32">
<path fill="none" stroke="#d1d1d7" style="stroke: var(--color1, #d1d1d7)" stroke-linejoin="round" stroke-linecap="round" stroke-miterlimit="4" stroke-width="2.6667" d="M16 29.333c7.364 0 13.333-5.97 13.333-13.333s-5.97-13.333-13.333-13.333c-7.364 0-13.333 5.97-13.333 13.333s5.97 13.333 13.333 13.333z"></path>
<path fill="none" stroke="#d1d1d7" style="stroke: var(--color1, #d1d1d7)" stroke-linejoin="round" stroke-linecap="round" stroke-miterlimit="4" stroke-width="2.6667" d="M2.667 16h26.667"></path>
<path fill="none" stroke="#d1d1d7" style="stroke: var(--color1, #d1d1d7)" stroke-linejoin="round" stroke-linecap="round" stroke-miterlimit="4" stroke-width="2.6667" d="M16 2.667c3.335 3.651 5.23 8.389 5.333 13.333-0.103 4.944-1.998 9.682-5.333 13.333-3.335-3.651-5.23-8.389-5.333-13.333 0.103-4.944 1.998-9.682 5.333-13.333v0z"></path>
</symbol>
<symbol id="icon-search" viewBox="0 0 32 32">
<path fill="none" stroke="#9a9ccb" style="stroke: var(--color2, #9a9ccb)" stroke-linejoin="round" stroke-linecap="round" stroke-miterlimit="4" stroke-width="4" d="M14.667 25.333c5.891 0 10.667-4.776 10.667-10.667s-4.776-10.667-10.667-10.667c-5.891 0-10.667 4.776-10.667 10.667s4.776 10.667 10.667 10.667z"></path>
<path fill="none" stroke="#9a9ccb" style="stroke: var(--color2, #9a9ccb)" stroke-linejoin="round" stroke-linecap="round" stroke-miterlimit="4" stroke-width="4" d="M28 28l-5.8-5.8"></path>
</symbol>
</defs>
</svg>
